<svg width="251" height="58" viewBox="0 0 251 58" fill="none" xmlns="http://www.w3.org/2000/svg">
<path d="M0.9375 13.6562C2.8125 13.8125 4.45312 13.9063 5.85938 13.9375C7.29688 13.9687 8.51562 13.9844 9.51562 13.9844C10.6719 13.9844 11.6719 13.9531 12.5156 13.8906C13.3906 13.7969 14.5312 13.6719 15.9375 13.5156C17.125 13.3594 18.6562 13.1563 20.5312 12.9062C22.4062 12.625 24.6875 12.2656 27.375 11.8281C27.0312 12.3594 26.7344 12.9219 26.4844 13.5156C26.2656 14.0781 26.0781 14.5938 25.9219 15.0625C25.7656 15.625 25.625 16.1719 25.5 16.7031C25.4062 17.2969 25.2969 18.0312 25.1719 18.9062C25.0469 19.6562 24.8906 20.6094 24.7031 21.7656C24.5469 22.8906 24.3438 24.2344 24.0938 25.7969C23.1562 23.3594 22.2031 21.4844 21.2344 20.1719C20.2969 18.8594 19.4219 17.8906 18.6094 17.2656C17.6719 16.5469 16.7812 16.1406 15.9375 16.0469C14.7188 16.0469 13.7188 16.2812 12.9375 16.75C12.1562 17.2188 11.5156 17.8281 11.0156 18.5781C10.5469 19.2969 10.1875 20.0938 9.9375 20.9688C9.6875 21.8125 9.51562 22.6406 9.42188 23.4531C9.32812 24.2344 9.26562 24.9375 9.23438 25.5625C9.20312 26.1562 9.17188 26.5625 9.14062 26.7812C10.2344 26.7188 11.1562 26.6406 11.9062 26.5469C12.6562 26.4531 13.25 26.3594 13.6875 26.2656C14.2188 26.1406 14.6406 26.0156 14.9531 25.8906C15.4219 25.6406 15.8906 25.3438 16.3594 25C16.7656 24.6875 17.1875 24.3125 17.625 23.875C18.0938 23.4375 18.5 22.9062 18.8438 22.2812C18.6562 23.4062 18.4844 24.3438 18.3281 25.0938C18.2031 25.8438 18.0938 26.4375 18 26.875C17.875 27.4062 17.7969 27.8125 17.7656 28.0938C17.7031 28.375 17.625 28.7656 17.5312 29.2656C17.4375 29.7031 17.3281 30.2656 17.2031 30.9531C17.0781 31.6406 16.9375 32.5 16.7812 33.5312C16.4062 32.875 16.0156 32.3438 15.6094 31.9375C15.2031 31.5 14.8281 31.1562 14.4844 30.9062C14.0781 30.625 13.6875 30.4062 13.3125 30.25C12.9062 30.125 12.4688 30 12 29.875C11.5938 29.7812 11.1094 29.6875 10.5469 29.5938C10.0156 29.4688 9.4375 29.3594 8.8125 29.2656C8.875 30.9531 8.96875 32.4062 9.09375 33.625C9.21875 34.8125 9.32812 35.8125 9.42188 36.625C9.54688 37.5625 9.67188 38.3438 9.79688 38.9688C9.95312 39.5938 10.2031 40.2656 10.5469 40.9844C10.8281 41.6094 11.2188 42.3281 11.7188 43.1406C12.25 43.9219 12.9219 44.7656 13.7344 45.6719C13.1094 45.5156 12.4531 45.4062 11.7656 45.3438C11.0781 45.2812 10.4688 45.2344 9.9375 45.2031C9.28125 45.1719 8.65625 45.1719 8.0625 45.2031C7.4375 45.2344 6.75 45.2969 6 45.3906C5.375 45.4531 4.65625 45.5469 3.84375 45.6719C3.03125 45.7969 2.17188 45.9375 1.26562 46.0938C1.79688 45.5625 2.23438 45.0312 2.57812 44.5C2.92188 43.9688 3.17188 43.5 3.32812 43.0938C3.51562 42.625 3.64062 42.1719 3.70312 41.7344C3.73438 41.3594 3.75 40.5469 3.75 39.2969C3.75 38.0156 3.73438 36.5312 3.70312 34.8438C3.67188 33.125 3.625 31.3125 3.5625 29.4062C3.5 27.5 3.4375 25.7188 3.375 24.0625C3.3125 22.375 3.23438 20.9375 3.14062 19.75C3.07812 18.5625 3 17.8438 2.90625 17.5938C2.78125 17.2812 2.64062 16.9219 2.48438 16.5156C2.23438 15.8594 1.71875 14.9062 0.9375 13.6562Z" fill="#F4B618"/>
<path d="M27.9375 12.0156C28.8438 12.1719 29.6406 12.2812 30.3281 12.3438C31.0469 12.4063 31.6406 12.4531 32.1094 12.4844C32.6719 12.5156 33.1562 12.5312 33.5625 12.5312C33.9688 12.5312 34.5469 12.5 35.2969 12.4375C35.9219 12.375 36.7344 12.2969 37.7344 12.2031C38.7656 12.1094 40.0312 11.9531 41.5312 11.7344C41.0938 11.8594 40.6875 12.2188 40.3125 12.8125C39.9688 13.375 39.6562 13.9844 39.375 14.6406C39.0312 15.4219 38.7344 16.2812 38.4844 17.2188C38.2656 18.0625 37.9844 19.2188 37.6406 20.6875C37.3281 22.1562 37.0156 23.75 36.7031 25.4688C36.4219 27.1875 36.2031 28.9375 36.0469 30.7188C35.8906 32.4688 35.8594 34.0781 35.9531 35.5469C36.0781 37.0156 36.375 38.2344 36.8438 39.2031C37.3125 40.1406 38.0312 40.6406 39 40.7031C40.4688 40.8281 41.6875 40.8438 42.6562 40.75C43.6562 40.625 44.4688 40.4531 45.0938 40.2344C45.7188 40.0156 46.2031 39.7656 46.5469 39.4844C46.8906 39.1719 47.1562 38.875 47.3438 38.5938C47.8438 37.875 48.3594 36.9531 48.8906 35.8281C49.4219 34.7031 49.8906 33.625 50.2969 32.5938C50.7344 31.5625 51.0938 30.6875 51.375 29.9688C51.6562 29.25 51.7969 28.9062 51.7969 28.9375C51.7969 29 51.7812 29.3594 51.75 30.0156C51.75 30.6406 51.7344 31.4062 51.7031 32.3125C51.7031 33.1875 51.6875 34.1094 51.6562 35.0781C51.6562 36.0469 51.6406 36.875 51.6094 37.5625C51.5781 38.125 51.5469 38.75 51.5156 39.4375C51.4844 40.0312 51.4531 40.7344 51.4219 41.5469C51.4219 42.3594 51.3906 43.25 51.3281 44.2188C50.0156 44.125 48.7656 44.0625 47.5781 44.0312C46.3906 44 45.3438 43.9844 44.4375 43.9844C43.375 43.9844 42.3906 44 41.4844 44.0312C40.5156 44.0625 39.3906 44.1094 38.1094 44.1719C37.0156 44.2344 35.6562 44.3125 34.0312 44.4062C32.4062 44.4688 30.5312 44.5625 28.4062 44.6875C28.6562 44.25 28.8594 43.8438 29.0156 43.4688C29.2031 43.0938 29.3438 42.7812 29.4375 42.5312C29.5625 42.2188 29.6406 41.9531 29.6719 41.7344C29.8594 40.7344 30.0156 39.4688 30.1406 37.9375C30.2656 36.375 30.3594 34.7188 30.4219 32.9688C30.5156 31.2188 30.5625 29.4375 30.5625 27.625C30.5938 25.7812 30.5938 24.0781 30.5625 22.5156C30.5312 20.9531 30.4688 19.5938 30.375 18.4375C30.3125 17.2812 30.2188 16.4844 30.0938 16.0469C29.9375 15.5469 29.75 15.0469 29.5312 14.5469C29.3438 14.1094 29.1094 13.6719 28.8281 13.2344C28.5781 12.7656 28.2812 12.3594 27.9375 12.0156Z" fill="#F4B618"/>
<path d="M52.0781 13.9844C54.2656 14.0469 56.0781 14.0938 57.5156 14.125C58.9844 14.125 60.1719 14.125 61.0781 14.125H63.5625H77.5312C77.5938 14.75 77.6406 15.3594 77.6719 15.9531C77.7344 16.5156 77.7656 17.0156 77.7656 17.4531C77.7656 17.9844 77.75 18.4688 77.7188 18.9062C77.6875 19.3438 77.6406 19.8125 77.5781 20.3125C77.5156 20.75 77.4531 21.2188 77.3906 21.7188C77.3281 22.2188 77.2188 22.7344 77.0625 23.2656C76.625 21.5781 76.0312 20.2969 75.2812 19.4219C74.5625 18.5469 73.8281 17.9062 73.0781 17.5C72.2031 17.0312 71.2812 16.7812 70.3125 16.75C69.0312 16.8125 68.0312 16.9219 67.3125 17.0781C66.5938 17.2344 66.0312 17.4531 65.625 17.7344C65.2188 18.0156 64.9062 18.3438 64.6875 18.7188C64.5 19.0625 64.2969 19.4531 64.0781 19.8906C63.8906 20.2656 63.7188 20.8438 63.5625 21.625C63.4062 22.2812 63.25 23.1719 63.0938 24.2969C62.9688 25.4219 62.8281 26.875 62.6719 28.6562C63.5156 28.4062 64.1875 28.1719 64.6875 27.9531C65.2188 27.7344 65.6406 27.5469 65.9531 27.3906C66.2969 27.2031 66.5469 27.0312 66.7031 26.875C66.8281 26.6875 67.0156 26.3438 67.2656 25.8438C67.4531 25.4062 67.7031 24.8125 68.0156 24.0625C68.3594 23.3125 68.7656 22.2812 69.2344 20.9688C69.2969 22.4062 69.3281 23.6094 69.3281 24.5781C69.3281 25.5156 69.3438 26.2812 69.375 26.875C69.375 27.5625 69.3906 28.1094 69.4219 28.5156V30.2969C69.4219 30.9531 69.4219 31.8438 69.4219 32.9688C69.4531 34.0625 69.5 35.4531 69.5625 37.1406C69.1875 35.9844 68.8438 35.0781 68.5312 34.4219C68.25 33.7344 68 33.2188 67.7812 32.875C67.5312 32.4688 67.3125 32.1875 67.125 32.0312C66.9062 31.9688 66.6094 31.9062 66.2344 31.8438C65.8906 31.8125 65.4531 31.7969 64.9219 31.7969C64.4219 31.7969 63.7812 31.875 63 32.0312C62.9062 33.75 62.8906 35.1406 62.9531 36.2031C63.0469 37.2344 63.1719 38.0312 63.3281 38.5938C63.4844 39.25 63.6719 39.7188 63.8906 40C64.1719 40.2812 64.7344 40.5156 65.5781 40.7031C66.4219 40.8594 67.375 40.9219 68.4375 40.8906C69.5312 40.8281 70.6406 40.6406 71.7656 40.3281C72.8906 40.0156 73.8906 39.5 74.7656 38.7812C75.4219 38.1875 76.125 37.4375 76.875 36.5312C77.5 35.75 78.1875 34.7656 78.9375 33.5781C79.7188 32.3906 80.4844 30.9531 81.2344 29.2656C81.1094 30.6719 81.0156 31.8438 80.9531 32.7812C80.9219 33.6875 80.875 34.4219 80.8125 34.9844C80.75 35.6406 80.7031 36.1406 80.6719 36.4844C80.6719 36.8594 80.625 37.3906 80.5312 38.0781C80.4688 38.6719 80.3594 39.4844 80.2031 40.5156C80.0781 41.5156 79.9062 42.7969 79.6875 44.3594C78.2188 44.3906 76.8281 44.4219 75.5156 44.4531C74.2031 44.4531 73.0469 44.4688 72.0469 44.5C70.8594 44.5312 69.7656 44.5625 68.7656 44.5938C67.7344 44.5938 66.5938 44.6406 65.3438 44.7344C64.25 44.7969 62.9531 44.8906 61.4531 45.0156C59.9844 45.1406 58.3594 45.3125 56.5781 45.5312C56.7344 43.4062 56.8438 41.4062 56.9062 39.5312C57 37.625 57.0625 35.9531 57.0938 34.5156C57.125 32.8281 57.125 31.2656 57.0938 29.8281C57.25 26.2344 57.1875 23.3281 56.9062 21.1094C56.625 18.8906 56.2969 17.4688 55.9219 16.8438C55.7344 16.625 55.4688 16.3594 55.125 16.0469C54.8438 15.7969 54.4531 15.5 53.9531 15.1562C53.4531 14.8125 52.8281 14.4219 52.0781 13.9844Z" fill="#F4B618"/>
<path d="M80.9219 14.1719C82.2969 14.2344 83.4688 14.2813 84.4375 14.3125C85.4062 14.3437 86.2031 14.375 86.8281 14.4062C87.5781 14.4375 88.1875 14.4688 88.6562 14.5C89.1562 14.5312 89.7812 14.5469 90.5312 14.5469C91.8125 14.5469 93.625 14.4531 95.9688 14.2656C95.4688 14.5156 95.0781 14.7969 94.7969 15.1094C94.5156 15.3906 94.2969 15.6719 94.1406 15.9531C93.9531 16.2969 93.8125 16.625 93.7188 16.9375C93.6562 17.3125 93.7969 17.8906 94.1406 18.6719C94.3906 19.3281 94.8438 20.2188 95.5 21.3438C96.1562 22.4688 97.125 23.9219 98.4062 25.7031C99.9375 23.4531 101.125 21.6875 101.969 20.4062C102.812 19.125 103.438 18.1562 103.844 17.5C104.312 16.7188 104.594 16.2031 104.688 15.9531C104.656 15.7969 104.531 15.5781 104.312 15.2969C104.125 15.0469 103.812 14.75 103.375 14.4062C102.969 14.0312 102.359 13.5781 101.547 13.0469C102.828 13.2344 103.891 13.375 104.734 13.4688C105.609 13.5625 106.312 13.625 106.844 13.6562C107.469 13.6875 107.984 13.6875 108.391 13.6562C108.797 13.625 109.391 13.5937 110.172 13.5625C110.828 13.5313 111.703 13.5 112.797 13.4688C113.922 13.4375 115.359 13.3906 117.109 13.3281C116.422 13.6719 115.828 14 115.328 14.3125C114.828 14.625 114.406 14.9062 114.062 15.1562C113.656 15.4687 113.297 15.7344 112.984 15.9531C112.609 16.3281 111.922 17.0938 110.922 18.25C110.078 19.25 108.875 20.7188 107.312 22.6562C105.75 24.5625 103.656 27.1562 101.031 30.4375C103.156 32.6875 104.875 34.4688 106.188 35.7812C107.5 37.0938 108.531 38.0938 109.281 38.7812C110.156 39.5938 110.797 40.1406 111.203 40.4219C111.578 40.6406 112.094 40.9219 112.75 41.2656C113.312 41.5781 114.047 41.9688 114.953 42.4375C115.859 42.875 117.016 43.4062 118.422 44.0312H110.594C109.938 44.0312 109.141 44.0625 108.203 44.125C107.391 44.1875 106.391 44.25 105.203 44.3125C104.016 44.375 102.625 44.4844 101.031 44.6406C101.594 44.2969 102 43.9688 102.25 43.6562C102.531 43.3125 102.719 43.0156 102.812 42.7656C102.938 42.4844 102.953 42.2344 102.859 42.0156C102.703 41.7031 102.438 41.2344 102.062 40.6094C101.719 40.0781 101.234 39.3281 100.609 38.3594C99.9844 37.3906 99.125 36.1094 98.0312 34.5156C96.7812 35.8594 95.8125 36.9844 95.125 37.8906C94.4688 38.7656 93.9688 39.4688 93.625 40C93.25 40.625 93 41.125 92.875 41.5C92.875 41.8438 92.9531 42.1875 93.1094 42.5312C93.2656 42.8438 93.5156 43.1875 93.8594 43.5625C94.2344 43.9375 94.7812 44.2969 95.5 44.6406L81.625 45.25C82.75 44.4688 83.6875 43.7656 84.4375 43.1406C85.1875 42.4844 85.7969 41.9375 86.2656 41.5C86.7969 40.9688 87.2188 40.5 87.5312 40.0938C87.8438 39.625 88.3281 38.9375 88.9844 38.0312C89.5156 37.25 90.25 36.2031 91.1875 34.8906C92.1562 33.5781 93.3906 31.8906 94.8906 29.8281C93.2344 27.1719 91.8906 25.0625 90.8594 23.5C89.8594 21.9375 89.0469 20.7344 88.4219 19.8906C87.7031 18.9219 87.1719 18.25 86.8281 17.875C86.5156 17.5938 86.0781 17.2812 85.5156 16.9375C85.0469 16.625 84.4375 16.25 83.6875 15.8125C82.9375 15.3438 82.0156 14.7969 80.9219 14.1719Z" fill="black"/>
<path d="M124.938 13.6562C126.812 13.8125 128.453 13.9063 129.859 13.9375C131.297 13.9687 132.516 13.9844 133.516 13.9844C134.672 13.9844 135.672 13.9531 136.516 13.8906C137.391 13.7969 138.531 13.6719 139.938 13.5156C141.125 13.3594 142.656 13.1563 144.531 12.9062C146.406 12.625 148.688 12.2656 151.375 11.8281C151.031 12.3594 150.734 12.9219 150.484 13.5156C150.266 14.0781 150.078 14.5938 149.922 15.0625C149.766 15.625 149.625 16.1719 149.5 16.7031C149.406 17.2969 149.297 18.0312 149.172 18.9062C149.047 19.6562 148.891 20.6094 148.703 21.7656C148.547 22.8906 148.344 24.2344 148.094 25.7969C147.156 23.3594 146.203 21.4844 145.234 20.1719C144.297 18.8594 143.422 17.8906 142.609 17.2656C141.672 16.5469 140.781 16.1406 139.938 16.0469C138.719 16.0469 137.719 16.2812 136.938 16.75C136.156 17.2188 135.516 17.8281 135.016 18.5781C134.547 19.2969 134.188 20.0938 133.938 20.9688C133.688 21.8125 133.516 22.6406 133.422 23.4531C133.328 24.2344 133.266 24.9375 133.234 25.5625C133.203 26.1562 133.172 26.5625 133.141 26.7812C134.234 26.7188 135.156 26.6406 135.906 26.5469C136.656 26.4531 137.25 26.3594 137.688 26.2656C138.219 26.1406 138.641 26.0156 138.953 25.8906C139.422 25.6406 139.891 25.3438 140.359 25C140.766 24.6875 141.188 24.3125 141.625 23.875C142.094 23.4375 142.5 22.9062 142.844 22.2812C142.656 23.4062 142.484 24.3438 142.328 25.0938C142.203 25.8438 142.094 26.4375 142 26.875C141.875 27.4062 141.797 27.8125 141.766 28.0938C141.703 28.375 141.625 28.7656 141.531 29.2656C141.438 29.7031 141.328 30.2656 141.203 30.9531C141.078 31.6406 140.938 32.5 140.781 33.5312C140.406 32.875 140.016 32.3438 139.609 31.9375C139.203 31.5 138.828 31.1562 138.484 30.9062C138.078 30.625 137.688 30.4062 137.312 30.25C136.906 30.125 136.469 30 136 29.875C135.594 29.7812 135.109 29.6875 134.547 29.5938C134.016 29.4688 133.438 29.3594 132.812 29.2656C132.875 30.9531 132.969 32.4062 133.094 33.625C133.219 34.8125 133.328 35.8125 133.422 36.625C133.547 37.5625 133.672 38.3438 133.797 38.9688C133.953 39.5938 134.203 40.2656 134.547 40.9844C134.828 41.6094 135.219 42.3281 135.719 43.1406C136.25 43.9219 136.922 44.7656 137.734 45.6719C137.109 45.5156 136.453 45.4062 135.766 45.3438C135.078 45.2812 134.469 45.2344 133.938 45.2031C133.281 45.1719 132.656 45.1719 132.062 45.2031C131.438 45.2344 130.75 45.2969 130 45.3906C129.375 45.4531 128.656 45.5469 127.844 45.6719C127.031 45.7969 126.172 45.9375 125.266 46.0938C125.797 45.5625 126.234 45.0312 126.578 44.5C126.922 43.9688 127.172 43.5 127.328 43.0938C127.516 42.625 127.641 42.1719 127.703 41.7344C127.734 41.3594 127.75 40.5469 127.75 39.2969C127.75 38.0156 127.734 36.5312 127.703 34.8438C127.672 33.125 127.625 31.3125 127.562 29.4062C127.5 27.5 127.438 25.7188 127.375 24.0625C127.312 22.375 127.234 20.9375 127.141 19.75C127.078 18.5625 127 17.8438 126.906 17.5938C126.781 17.2812 126.641 16.9219 126.484 16.5156C126.234 15.8594 125.719 14.9062 124.938 13.6562Z" fill="#F4B618"/>
<path d="M220.016 12.5781C221.109 12.7344 222.062 12.8594 222.875 12.9531C223.688 13.0469 224.359 13.125 224.891 13.1875C225.516 13.25 226.047 13.2969 226.484 13.3281C226.984 13.3906 227.594 13.3594 228.312 13.2344C229.062 13.1094 229.859 12.9844 230.703 12.8594C231.547 12.7031 232.422 12.5781 233.328 12.4844C234.234 12.3906 235.109 12.3906 235.953 12.4844C236.516 12.5469 237.234 12.6719 238.109 12.8594C238.984 13.0469 239.906 13.3438 240.875 13.75C241.875 14.1562 242.875 14.6875 243.875 15.3438C244.875 16 245.781 16.8281 246.594 17.8281C247.406 18.8281 248.078 20.0156 248.609 21.3906C249.141 22.7656 249.438 24.375 249.5 26.2188C249.594 28.9688 249.344 31.4688 248.75 33.7188C248.156 35.9688 247.234 37.8906 245.984 39.4844C244.766 41.0781 243.219 42.3281 241.344 43.2344C239.469 44.1406 237.281 44.6406 234.781 44.7344C232.875 44.8906 231 45.0312 229.156 45.1562C228.375 45.2188 227.547 45.2656 226.672 45.2969C225.828 45.3281 224.984 45.3594 224.141 45.3906C223.297 45.3906 222.484 45.375 221.703 45.3438C220.922 45.3125 220.203 45.2656 219.547 45.2031C220.266 44.8594 220.844 44.5156 221.281 44.1719C221.75 43.8281 222.109 43.5312 222.359 43.2812C222.641 42.9688 222.844 42.6875 222.969 42.4375C223.031 42.0938 223.125 41.4219 223.25 40.4219C223.344 39.5781 223.469 38.375 223.625 36.8125C223.781 35.25 223.969 33.125 224.188 30.4375L224.469 27.1094C224.625 25.0469 224.688 23.3594 224.656 22.0469C224.656 20.7344 224.625 19.7031 224.562 18.9531C224.469 18.0781 224.344 17.4375 224.188 17.0312C224.062 16.6875 223.828 16.2812 223.484 15.8125C223.172 15.4375 222.734 14.9844 222.172 14.4531C221.641 13.8906 220.922 13.2656 220.016 12.5781ZM229.906 29.8281C229.969 32.6094 230.109 34.75 230.328 36.25C230.578 37.7188 230.844 38.8125 231.125 39.5312C231.469 40.3438 231.844 40.8281 232.25 40.9844C232.844 40.9844 233.516 40.7344 234.266 40.2344C235.016 39.7031 235.75 38.9062 236.469 37.8438C237.219 36.7812 237.891 35.4531 238.484 33.8594C239.109 32.2656 239.562 30.4062 239.844 28.2812C240.125 26.1562 240.047 24.2812 239.609 22.6562C239.172 21.0312 238.594 19.6719 237.875 18.5781C237.156 17.4531 236.422 16.6094 235.672 16.0469C234.922 15.4531 234.359 15.1562 233.984 15.1562C233.547 15.1562 233.156 15.2812 232.812 15.5312C232.469 15.75 231.984 16.2656 231.359 17.0781C231.047 17.5156 230.766 18.1406 230.516 18.9531C230.297 19.6719 230.109 20.625 229.953 21.8125C229.797 23 229.75 24.5312 229.812 26.4062L229.906 29.8281Z" fill="#F4B618"/>
<path d="M203.578 10.6562C205.266 10.7188 206.969 11.0312 208.688 11.5938C210.438 12.125 212.047 13 213.516 14.2188C214.984 15.4063 216.234 16.9531 217.266 18.8594C218.297 20.7344 218.938 23.0312 219.188 25.75C219.406 27.9688 219.125 30.1719 218.344 32.3594C217.594 34.5156 216.547 36.5 215.203 38.3125C213.859 40.125 212.312 41.6719 210.562 42.9531C208.812 44.2031 207.062 45.0312 205.312 45.4375C204.25 45.6875 203.078 45.7188 201.797 45.5312C200.547 45.3125 199.266 44.9219 197.953 44.3594C196.672 43.7656 195.406 43.0156 194.156 42.1094C192.938 41.2031 191.828 40.1719 190.828 39.0156C189.828 37.8281 188.984 36.5469 188.297 35.1719C187.641 33.7969 187.234 32.3594 187.078 30.8594C186.922 29.6094 186.906 28.2344 187.031 26.7344C187.188 25.2031 187.484 23.6875 187.922 22.1875C188.391 20.6562 189.031 19.1875 189.844 17.7812C190.688 16.3438 191.75 15.0937 193.031 14.0312C194.312 12.9375 195.812 12.0937 197.531 11.5C199.281 10.875 201.297 10.5937 203.578 10.6562ZM195.188 29.6406C194.75 32.9844 195.062 35.6719 196.125 37.7031C197.219 39.7344 198.859 40.9688 201.047 41.4062C202.109 41.625 203.125 41.4062 204.094 40.75C205.094 40.0625 206 39.0781 206.812 37.7969C207.625 36.5156 208.328 35.0156 208.922 33.2969C209.516 31.5781 209.953 29.7812 210.234 27.9062C210.516 26.0312 210.531 24.3438 210.281 22.8438C210.062 21.3125 209.672 20.0156 209.109 18.9531C208.547 17.8594 207.859 17.0156 207.047 16.4219C206.266 15.8281 205.453 15.5 204.609 15.4375C203.141 15.3438 201.859 15.7344 200.766 16.6094C199.672 17.4531 198.75 18.5625 198 19.9375C197.25 21.3125 196.641 22.8594 196.172 24.5781C195.734 26.2969 195.406 27.9844 195.188 29.6406Z" fill="black"/>
<path d="M168.578 10.6562C170.266 10.7188 171.969 11.0312 173.688 11.5938C175.438 12.125 177.047 13 178.516 14.2188C179.984 15.4063 181.234 16.9531 182.266 18.8594C183.297 20.7344 183.938 23.0312 184.188 25.75C184.406 27.9688 184.125 30.1719 183.344 32.3594C182.594 34.5156 181.547 36.5 180.203 38.3125C178.859 40.125 177.312 41.6719 175.562 42.9531C173.812 44.2031 172.062 45.0312 170.312 45.4375C169.25 45.6875 168.078 45.7188 166.797 45.5312C165.547 45.3125 164.266 44.9219 162.953 44.3594C161.672 43.7656 160.406 43.0156 159.156 42.1094C157.938 41.2031 156.828 40.1719 155.828 39.0156C154.828 37.8281 153.984 36.5469 153.297 35.1719C152.641 33.7969 152.234 32.3594 152.078 30.8594C151.922 29.6094 151.906 28.2344 152.031 26.7344C152.188 25.2031 152.484 23.6875 152.922 22.1875C153.391 20.6562 154.031 19.1875 154.844 17.7812C155.688 16.3438 156.75 15.0937 158.031 14.0312C159.312 12.9375 160.812 12.0937 162.531 11.5C164.281 10.875 166.297 10.5937 168.578 10.6562ZM160.188 29.6406C159.75 32.9844 160.062 35.6719 161.125 37.7031C162.219 39.7344 163.859 40.9688 166.047 41.4062C167.109 41.625 168.125 41.4062 169.094 40.75C170.094 40.0625 171 39.0781 171.812 37.7969C172.625 36.5156 173.328 35.0156 173.922 33.2969C174.516 31.5781 174.953 29.7812 175.234 27.9062C175.516 26.0312 175.531 24.3438 175.281 22.8438C175.062 21.3125 174.672 20.0156 174.109 18.9531C173.547 17.8594 172.859 17.0156 172.047 16.4219C171.266 15.8281 170.453 15.5 169.609 15.4375C168.141 15.3438 166.859 15.7344 165.766 16.6094C164.672 17.4531 163.75 18.5625 163 19.9375C162.25 21.3125 161.641 22.8594 161.172 24.5781C160.734 26.2969 160.406 27.9844 160.188 29.6406Z" fill="black"/>
<ellipse cx="167.5" cy="28.5" rx="4.5" ry="5.5" fill="#F4B618"/>
<ellipse cx="202.5" cy="28.5" rx="4.5" ry="5.5" fill="#F4B618"/>
</svg>
